# xmcd
#
# Track frame offsets:
#	150
#	8830
#	16835
#	26520
#	36461
#	47720
#	57398
#	66215
#	75660
#	83635
#	95159
#	107534
#	115803
#	125141
#	133391
#	155943
#	174884
#	188746
#	210373
#	230173
#	243393
#	261193
#	280099
#	288829
#	297538
#	314719
#
# Disc length: 4324 seconds
#
# Revision: 6
# Processed by: cddbd v1.5.2PL0 Copyright (c) Steve Scherf et al.
# Submitted via: audiograbber 1.83.01
#
DISCID=8110e21a
DTITLE=Johnny Cash - The Real CD 2
DYEAR=2011
DGENRE=Rock - Country
TTITLE0=Drink To Me
TTITLE1=Five Feet High And Rising
TTITLE2=The Man On The Hill
TTITLE3=Hank And Joe And Me
TTITLE4=Clementine
TTITLE5=Great Speckled Bird
TTITLE6=I Want To Go Home
TTITLE7=The Caretaker
TTITLE8=Old Apache Squaw
TTITLE9=Don't Step On Mother's Roses
TTITLE10=My Grandfather's Clock
TTITLE11=It Could Be You (Instead of Him)
TTITLE12=I Got Stripes
TTITLE13=You Dreamer You
TTITLE14=Loading Coal
TTITLE15=Slow Rider
TTITLE16=Lumberjack
TTITLE17=Dorraine Of Ponchatrain
TTITLE18=Going To Memphis
TTITLE19=When Papa Played The Dobro
TTITLE20=Boss Jack
TTITLE21=Old Doc Brown
TTITLE22=The Fable of Willie Brown
TTITLE23=Second Honeymoon
TTITLE24=Ballad of The Harp Weaver
TTITLE25=Smiling Bill McCall
EXTD=YEAR: 2011
EXTT0=
EXTT1=
EXTT2=
EXTT3=
EXTT4=
EXTT5=
EXTT6=
EXTT7=
EXTT8=
EXTT9=
EXTT10=
EXTT11=
EXTT12=
EXTT13=
EXTT14=
EXTT15=
EXTT16=
EXTT17=
EXTT18=
EXTT19=
EXTT20=
EXTT21=
EXTT22=
EXTT23=
EXTT24=
EXTT25=
PLAYORDER=
